<svg id="visual" viewBox="0 0 2000 2700" width="2000" height="2700" xmlns="http://www.w3.org/2000/svg" xmlns:xlink="http://www.w3.org/1999/xlink" version="1.1"><path d="M0 1332L10.8 1333.3C21.7 1334.7 43.3 1337.3 64.8 1309.5C86.3 1281.7 107.7 1223.3 129.2 1282.2C150.7 1341 172.3 1517 193.8 1528.8C215.3 1540.7 236.7 1388.3 258.2 1321.5C279.7 1254.7 301.3 1273.3 322.8 1279.3C344.3 1285.3 365.7 1278.7 387.2 1293.7C408.7 1308.7 430.3 1345.3 451.8 1411.2C473.3 1477 494.7 1572 516.2 1610.5C537.7 1649 559.3 1631 580.8 1523.2C602.3 1415.3 623.7 1217.7 645.2 1163.3C666.7 1109 688.3 1198 709.8 1252.3C731.3 1306.7 752.7 1326.3 774.2 1372.7C795.7 1419 817.3 1492 838.8 1475.8C860.3 1459.7 881.7 1354.3 903.2 1278.7C924.7 1203 946.3 1157 967.8 1148.2C989.3 1139.3 1010.7 1167.7 1032.2 1192.2C1053.7 1216.7 1075.3 1237.3 1096.8 1240.5C1118.3 1243.7 1139.7 1229.3 1161.2 1271.7C1182.7 1314 1204.3 1413 1225.8 1374.5C1247.3 1336 1268.7 1160 1290.2 1160.3C1311.7 1160.7 1333.3 1337.3 1354.8 1374.7C1376.3 1412 1397.7 1310 1419.2 1244.2C1440.7 1178.3 1462.3 1148.7 1483.8 1189.7C1505.3 1230.7 1526.7 1342.3 1548.2 1422C1569.7 1501.7 1591.3 1549.3 1612.8 1511.7C1634.3 1474 1655.7 1351 1677.2 1341.7C1698.7 1332.3 1720.3 1436.7 1741.8 1436.7C1763.3 1436.7 1784.7 1332.3 1806.2 1366.3C1827.7 1400.3 1849.3 1572.7 1870.8 1566.8C1892.3 1561 1913.7 1377 1935.2 1326.3C1956.7 1275.7 1978.3 1358.3 1989.2 1399.7L2000 1441L2000 0L1989.2 0C1978.3 0 1956.7 0 1935.2 0C1913.7 0 1892.3 0 1870.8 0C1849.3 0 1827.7 0 1806.2 0C1784.7 0 1763.3 0 1741.8 0C1720.3 0 1698.7 0 1677.2 0C1655.7 0 1634.3 0 1612.8 0C1591.3 0 1569.7 0 1548.2 0C1526.7 0 1505.3 0 1483.8 0C1462.3 0 1440.7 0 1419.2 0C1397.7 0 1376.3 0 1354.8 0C1333.3 0 1311.7 0 1290.2 0C1268.7 0 1247.3 0 1225.8 0C1204.3 0 1182.7 0 1161.2 0C1139.7 0 1118.3 0 1096.8 0C1075.3 0 1053.7 0 1032.2 0C1010.7 0 989.3 0 967.8 0C946.3 0 924.7 0 903.2 0C881.7 0 860.3 0 838.8 0C817.3 0 795.7 0 774.2 0C752.7 0 731.3 0 709.8 0C688.3 0 666.7 0 645.2 0C623.7 0 602.3 0 580.8 0C559.3 0 537.7 0 516.2 0C494.7 0 473.3 0 451.8 0C430.3 0 408.7 0 387.2 0C365.7 0 344.3 0 322.8 0C301.3 0 279.7 0 258.2 0C236.7 0 215.3 0 193.8 0C172.3 0 150.7 0 129.2 0C107.7 0 86.3 0 64.8 0C43.3 0 21.7 0 10.8 0L0 0Z" fill="#0066FF" stroke-linecap="round" stroke-linejoin="miter"></path></svg>