<svg id="visual" viewBox="0 0 2000 1000" width="2000" height="1000" xmlns="http://www.w3.org/2000/svg" xmlns:xlink="http://www.w3.org/1999/xlink" version="1.1"><path d="M0 446L11.2 455.2C22.3 464.3 44.7 482.7 66.8 501C89 519.3 111 537.7 133.2 534C155.3 530.3 177.7 504.7 200 507.3C222.3 510 244.7 541 266.8 539.5C289 538 311 504 333.2 491.8C355.3 479.7 377.7 489.3 400 494C422.3 498.7 444.7 498.3 466.8 483C489 467.7 511 437.3 533.2 448.2C555.3 459 577.7 511 600 542.3C622.3 573.7 644.7 584.3 666.8 567.5C689 550.7 711 506.3 733.2 479.7C755.3 453 777.7 444 800 451.2C822.3 458.3 844.7 481.7 866.8 476C889 470.3 911 435.7 933.2 449.2C955.3 462.7 977.7 524.3 1000 552.7C1022.3 581 1044.7 576 1066.8 551.7C1089 527.3 1111 483.7 1133.2 462.2C1155.3 440.7 1177.7 441.3 1200 438.2C1222.3 435 1244.7 428 1266.8 452.2C1289 476.3 1311 531.7 1333.2 551C1355.3 570.3 1377.7 553.7 1400 522.7C1422.3 491.7 1444.7 446.3 1466.8 440.8C1489 435.3 1511 469.7 1533.2 488.2C1555.3 506.7 1577.7 509.3 1600 494.8C1622.3 480.3 1644.7 448.7 1666.8 441.8C1689 435 1711 453 1733.2 480C1755.3 507 1777.7 543 1800 544.5C1822.3 546 1844.7 513 1866.8 500.7C1889 488.3 1911 496.7 1933.2 488.8C1955.3 481 1977.7 457 1988.8 445L2000 433L2000 0L1988.8 0C1977.7 0 1955.3 0 1933.2 0C1911 0 1889 0 1866.8 0C1844.7 0 1822.3 0 1800 0C1777.7 0 1755.3 0 1733.2 0C1711 0 1689 0 1666.8 0C1644.7 0 1622.3 0 1600 0C1577.7 0 1555.3 0 1533.2 0C1511 0 1489 0 1466.8 0C1444.7 0 1422.3 0 1400 0C1377.7 0 1355.3 0 1333.2 0C1311 0 1289 0 1266.8 0C1244.7 0 1222.3 0 1200 0C1177.7 0 1155.3 0 1133.2 0C1111 0 1089 0 1066.8 0C1044.7 0 1022.3 0 1000 0C977.7 0 955.3 0 933.2 0C911 0 889 0 866.8 0C844.7 0 822.3 0 800 0C777.7 0 755.3 0 733.2 0C711 0 689 0 666.8 0C644.7 0 622.3 0 600 0C577.7 0 555.3 0 533.2 0C511 0 489 0 466.8 0C444.7 0 422.3 0 400 0C377.7 0 355.3 0 333.2 0C311 0 289 0 266.8 0C244.7 0 222.3 0 200 0C177.7 0 155.3 0 133.2 0C111 0 89 0 66.8 0C44.7 0 22.3 0 11.2 0L0 0Z" fill="#6D6AEB" stroke-linecap="round" stroke-linejoin="miter"></path></svg>